<svg width="472" height="90" viewBox="0 0 472 90" fill="none" xmlns="http://www.w3.org/2000/svg">
<path d="M131 74V16.5906H169.953C174.39 16.5906 178.235 17.2117 181.488 18.4539C184.801 19.637 187.374 21.53 189.208 24.1328C191.042 26.6764 191.959 29.9595 191.959 33.982C191.959 36.7031 191.485 39.0101 190.539 40.9031C189.593 42.796 188.262 44.334 186.546 45.5171C184.89 46.7002 182.967 47.6171 180.778 48.2678C178.59 48.8593 176.253 49.2438 173.769 49.4213L172.526 48.7114C176.667 48.7706 180.069 49.1255 182.731 49.7762C185.393 50.3678 187.374 51.4917 188.676 53.148C190.036 54.7452 190.716 57.141 190.716 60.3353V74H178.915V61.1339C178.915 58.9452 178.531 57.2593 177.762 56.0762C176.993 54.8339 175.602 53.9762 173.591 53.503C171.639 53.0297 168.8 52.7931 165.073 52.7931H142.801V74H131ZM142.801 43.565H169.953C173.266 43.565 175.78 42.7664 177.495 41.1693C179.27 39.5721 180.157 37.4129 180.157 34.6918C180.157 32.089 179.27 30.1074 177.495 28.7468C175.78 27.3863 173.266 26.706 169.953 26.706H142.801V43.565Z" fill="url(#paint0_linear_3_3)"/>
<path d="M216.109 50.0424V64.1508H260.386V74H204.308V16.5906H260.297V26.4398H216.109V40.7256H252.311V50.0424H216.109Z" fill="url(#paint1_linear_3_3)"/>
<path d="M281.465 61.4888V51.6396H319.442V61.4888H281.465ZM267.179 74L294.153 16.5906H306.931L334.171 74H321.305L297.703 22.2694H303.381L279.956 74H267.179Z" fill="url(#paint2_linear_3_3)"/>
<path d="M342.518 74V16.5906H381.471C385.907 16.5906 389.753 17.2117 393.006 18.4539C396.319 19.637 398.892 21.53 400.726 24.1328C402.559 26.6764 403.476 29.9595 403.476 33.982C403.476 36.7031 403.003 39.0101 402.057 40.9031C401.11 42.796 399.779 44.334 398.064 45.5171C396.407 46.7002 394.485 47.6171 392.296 48.2678C390.107 48.8593 387.771 49.2438 385.286 49.4213L384.044 48.7114C388.185 48.7706 391.586 49.1255 394.248 49.7762C396.91 50.3678 398.892 51.4917 400.193 53.148C401.554 54.7452 402.234 57.141 402.234 60.3353V74H390.433V61.1339C390.433 58.9452 390.048 57.2593 389.279 56.0762C388.51 54.8339 387.12 53.9762 385.109 53.503C383.157 53.0297 380.317 52.7931 376.591 52.7931H354.319V74H342.518ZM354.319 43.565H381.471C384.784 43.565 387.298 42.7664 389.013 41.1693C390.788 39.5721 391.675 37.4129 391.675 34.6918C391.675 32.089 390.788 30.1074 389.013 28.7468C387.298 27.3863 384.784 26.706 381.471 26.706H354.319V43.565Z" fill="url(#paint3_linear_3_3)"/>
<path d="M410.768 16.5906H471.283V26.4398H410.768V16.5906ZM435.169 25.1976H446.97V74H435.169V25.1976Z" fill="url(#paint4_linear_3_3)"/>
<path fill-rule="evenodd" clip-rule="evenodd" d="M23.9544 0H70.4943L94.7909 15.7414L83.8403 14.7148L96.1597 22.9278L91.3688 54.0684L83.8403 45.8555V62.6236L72.2053 75.9696L68.4411 70.8365V80.076L47.9087 90L28.7452 80.076V70.8365L23.9544 75.9696L10.9506 62.6236V44.8289L5.13308 54.0684L0 22.9278L11.9772 14.7148L2.73764 15.7414L23.9544 0ZM52.3574 32.8517L55.7795 36.9582L57.1483 32.8517L67.0722 28.0608V22.2433L58.5171 15.057L48.5931 20.1901L38.6692 15.057L29.4296 22.2433V28.0608L39.3536 32.8517L40.7224 36.9582L44.8289 32.8517L41.0646 39.3536L40.1942 41.068L38.327 38.6692L29.4296 31.8251L22.5855 36.9582L31.8251 46.1977L30.4563 60.2281L38.327 63.9924L46.5399 58.1749L36.616 49.2776L48.5931 53.0418L59.2015 49.2776L50.3042 58.1749L57.8327 63.9924L66.73 60.2281L65.3612 46.1977L74.2585 36.9582L67.7566 31.8251L57.8327 38.6692L56.7961 41.068L55.7795 39.3536L52.3574 32.8517ZM40.038 65.7034L47.9087 61.597L55.7795 65.7034L47.9087 74.2586L40.038 65.7034Z" fill="url(#paint5_linear_3_3)"/>
<defs>
<linearGradient id="paint0_linear_3_3" x1="131" y1="37.7472" x2="478.801" y2="83.177" gradientUnits="userSpaceOnUse">
<stop stop-color="#E8F8F8"/>
<stop offset="0.546875" stop-color="#64E3E3"/>
<stop offset="1" stop-color="#E064E3"/>
</linearGradient>
<linearGradient id="paint1_linear_3_3" x1="131" y1="37.7472" x2="478.801" y2="83.177" gradientUnits="userSpaceOnUse">
<stop stop-color="#E8F8F8"/>
<stop offset="0.546875" stop-color="#64E3E3"/>
<stop offset="1" stop-color="#E064E3"/>
</linearGradient>
<linearGradient id="paint2_linear_3_3" x1="131" y1="37.7472" x2="478.801" y2="83.177" gradientUnits="userSpaceOnUse">
<stop stop-color="#E8F8F8"/>
<stop offset="0.546875" stop-color="#64E3E3"/>
<stop offset="1" stop-color="#E064E3"/>
</linearGradient>
<linearGradient id="paint3_linear_3_3" x1="131" y1="37.7472" x2="478.801" y2="83.177" gradientUnits="userSpaceOnUse">
<stop stop-color="#E8F8F8"/>
<stop offset="0.546875" stop-color="#64E3E3"/>
<stop offset="1" stop-color="#E064E3"/>
</linearGradient>
<linearGradient id="paint4_linear_3_3" x1="131" y1="37.7472" x2="478.801" y2="83.177" gradientUnits="userSpaceOnUse">
<stop stop-color="#E8F8F8"/>
<stop offset="0.546875" stop-color="#64E3E3"/>
<stop offset="1" stop-color="#E064E3"/>
</linearGradient>
<linearGradient id="paint5_linear_3_3" x1="104.5" y1="-10" x2="52.7419" y2="109.66" gradientUnits="userSpaceOnUse">
<stop stop-color="#E8F8F8"/>
<stop offset="0.546875" stop-color="#64E3E3"/>
<stop offset="1" stop-color="#E064E3"/>
</linearGradient>
</defs>
</svg>
